# xmcd
#
# Track frame offsets:
#	150
#	17630
#	39675
#	52727
#	74055
#	90032
#	115297
#	133865
#	169222
#	200652
#	232765
#	260677
#	280322
#	313382
# Disc length: 4434 seconds
# Revision: 1
# Processed by: cddbd v1.5.2PL0 Copyright (c) Steve Scherf et al.
#
# Submitted via: libkcddb 0.31
#
DISCID=ca11500e
DTITLE=Iron Maiden - Live at Donington
DYEAR=1992
DGENRE=Hard Rock
TTITLE0=Be quick or be dead
TTITLE1=The number of the beast
TTITLE2=Wratchild
TTITLE3=From here to eternity
TTITLE4=Can I play with madness
TTITLE5=Wasting love
TTITLE6=Tailgunner
TTITLE7=The evil that men do
TTITLE8=Afraid to shoot strangers
TTITLE9=Fear of the dark
TTITLE10=Bring your daughter ... to the slaughter
TTITLE11=The clairvoyant
TTITLE12=Heaven can wait
TTITLE13=Run to the hills
EXTD=
EXTT0=
EXTT1=
EXTT2=
EXTT3=
EXTT4=
EXTT5=
EXTT6=
EXTT7=
EXTT8=
EXTT9=
EXTT10=
EXTT11=
EXTT12=
EXTT13=
PLAYORDER=
